<svg width="28" height="28" viewBox="0 0 28 28" fill="none" xmlns="http://www.w3.org/2000/svg">
<circle cx="13.9277" cy="13.5855" r="13.5855" fill="#F9F9F7" fill-opacity="0.12"/>
<path d="M13.9294 8.20053C15.6845 8.20053 15.8924 8.20711 16.5857 8.23872C17.0026 8.24382 17.4155 8.32037 17.8066 8.46504C18.0901 8.5744 18.3476 8.74192 18.5625 8.95681C18.7774 9.17171 18.9449 9.42923 19.0543 9.71278C19.199 10.1038 19.2755 10.5167 19.2806 10.9336C19.3119 11.627 19.3188 11.8348 19.3188 13.59C19.3188 15.3451 19.3122 15.553 19.2806 16.2464C19.2755 16.6632 19.199 17.0762 19.0543 17.4672C18.9449 17.7507 18.7774 18.0082 18.5625 18.2231C18.3476 18.438 18.0901 18.6056 17.8066 18.7149C17.4155 18.8596 17.0026 18.9361 16.5857 18.9412C15.8927 18.9725 15.6848 18.9794 13.9294 18.9794C12.1739 18.9794 11.966 18.9729 11.273 18.9412C10.8561 18.9361 10.4432 18.8596 10.0522 18.7149C9.7686 18.6056 9.51109 18.438 9.29619 18.2231C9.08129 18.0082 8.91377 17.7507 8.80442 17.4672C8.65975 17.0762 8.5832 16.6632 8.5781 16.2464C8.54679 15.553 8.53991 15.3451 8.53991 13.59C8.53991 11.8348 8.54648 11.627 8.5781 10.9336C8.5832 10.5167 8.65975 10.1038 8.80442 9.71278C8.91377 9.42923 9.08129 9.17171 9.29619 8.95681C9.51109 8.74192 9.7686 8.5744 10.0522 8.46504C10.4432 8.32037 10.8561 8.24382 11.273 8.23872C11.9663 8.20742 12.1742 8.20053 13.9294 8.20053ZM13.9294 7.01602C12.1451 7.01602 11.9203 7.02354 11.2191 7.05547C10.6735 7.06632 10.1337 7.16962 9.62268 7.36098C9.18428 7.52616 8.7872 7.785 8.45915 8.11946C8.12439 8.44763 7.86532 8.84494 7.70005 9.28362C7.50868 9.79467 7.40538 10.3345 7.39453 10.8801C7.36323 11.5806 7.35571 11.8054 7.35571 13.5897C7.35571 15.3739 7.36323 15.5987 7.39515 16.2999C7.40601 16.8455 7.50931 17.3853 7.70067 17.8963C7.86577 18.335 8.12462 18.7323 8.45915 19.0605C8.78738 19.395 9.18468 19.6539 9.62331 19.819C10.1344 20.0103 10.6742 20.1136 11.2198 20.1245C11.9209 20.1558 12.1448 20.1639 13.93 20.1639C15.7152 20.1639 15.939 20.1564 16.6402 20.1245C17.1858 20.1136 17.7256 20.0103 18.2367 19.819C18.6732 19.6498 19.0696 19.3913 19.4006 19.0601C19.7315 18.729 19.9897 18.3324 20.1587 17.8957C20.35 17.3847 20.4533 16.8449 20.4642 16.2993C20.4955 15.5987 20.503 15.3739 20.503 13.5897C20.503 11.8054 20.4955 11.5806 20.4636 10.8794C20.4527 10.3338 20.3494 9.79404 20.158 9.28299C19.9929 8.84437 19.7341 8.44707 19.3996 8.11883C19.0713 7.7843 18.674 7.52545 18.2354 7.36036C17.7243 7.169 17.1845 7.06569 16.6389 7.05484C15.9384 7.02354 15.7136 7.01602 13.9294 7.01602Z" fill="white"/>
<path d="M13.9277 10.2176C13.2601 10.2176 12.6074 10.4156 12.0523 10.7865C11.4971 11.1574 11.0645 11.6846 10.809 12.3015C10.5535 12.9183 10.4866 13.597 10.6169 14.2519C10.7471 14.9067 11.0686 15.5082 11.5407 15.9803C12.0128 16.4524 12.6143 16.7739 13.2692 16.9041C13.924 17.0344 14.6027 16.9675 15.2196 16.712C15.8364 16.4565 16.3636 16.0239 16.7345 15.4687C17.1055 14.9136 17.3034 14.2609 17.3034 13.5933C17.3034 12.698 16.9478 11.8394 16.3147 11.2063C15.6816 10.5732 14.823 10.2176 13.9277 10.2176ZM13.9277 15.7845C13.4943 15.7845 13.0707 15.656 12.7104 15.4152C12.35 15.1744 12.0692 14.8322 11.9033 14.4318C11.7375 14.0314 11.6941 13.5909 11.7786 13.1658C11.8632 12.7408 12.0719 12.3503 12.3783 12.0439C12.6847 11.7374 13.0752 11.5287 13.5002 11.4442C13.9253 11.3596 14.3659 11.403 14.7663 11.5689C15.1667 11.7347 15.5089 12.0156 15.7497 12.3759C15.9904 12.7363 16.1189 13.1599 16.1189 13.5933C16.1189 14.1744 15.8881 14.7318 15.4771 15.1427C15.0662 15.5536 14.5089 15.7845 13.9277 15.7845Z" fill="white"/>
<path d="M17.4483 10.8711C17.8839 10.8711 18.2371 10.5179 18.2371 10.0823C18.2371 9.64659 17.8839 9.29342 17.4483 9.29342C17.0126 9.29342 16.6594 9.64659 16.6594 10.0823C16.6594 10.5179 17.0126 10.8711 17.4483 10.8711Z" fill="white"/>
</svg>
