<svg width="30" height="30" viewBox="0 0 30 30" fill="none" xmlns="http://www.w3.org/2000/svg">
<rect width="30" height="30" rx="15" fill="#AD343E"/>
<rect width="15.07" height="15.07" transform="translate(7.00012 7.00024)" fill="#AD343E"/>
<path d="M8.88385 8.88403H10.1397L10.3909 10.1399M11.3955 15.1632H17.6747L20.1863 10.1399H10.3909M11.3955 15.1632L10.3909 10.1399M11.3955 15.1632L9.95577 16.6029C9.56021 16.9985 9.84036 17.6749 10.3998 17.6749H17.6747M17.6747 17.6749C16.9811 17.6749 16.4188 18.2371 16.4188 18.9307C16.4188 19.6243 16.9811 20.1865 17.6747 20.1865C18.3683 20.1865 18.9305 19.6243 18.9305 18.9307C18.9305 18.2371 18.3683 17.6749 17.6747 17.6749ZM12.6513 18.9307C12.6513 19.6243 12.0891 20.1865 11.3955 20.1865C10.7019 20.1865 10.1397 19.6243 10.1397 18.9307C10.1397 18.2371 10.7019 17.6749 11.3955 17.6749C12.0891 17.6749 12.6513 18.2371 12.6513 18.9307Z" stroke="white" stroke-width="1.5" stroke-linecap="round" stroke-linejoin="round"/>
</svg>
