<svg width="28" height="28" viewBox="0 0 28 28" fill="none" xmlns="http://www.w3.org/2000/svg">
<circle cx="14.0987" cy="13.5855" r="13.5855" fill="#F9F9F7" fill-opacity="0.12"/>
<path fill-rule="evenodd" clip-rule="evenodd" d="M14.7061 7.01602C11.2215 7.01602 8.41809 9.81945 8.41809 13.3041C8.41809 16.0813 10.2259 18.4393 12.7149 19.2777C13.0293 19.3301 13.1341 19.1467 13.1341 18.9633C13.1341 18.8061 13.1341 18.4131 13.1341 17.8891C11.3787 18.2821 11.0119 17.0507 11.0119 17.0507C10.7237 16.3171 10.3045 16.1337 10.3045 16.1337C9.7281 15.7407 10.3569 15.7407 10.3569 15.7407C10.9857 15.7931 11.3263 16.3957 11.3263 16.3957C11.8765 17.3651 12.7935 17.0769 13.1603 16.9197C13.2127 16.5005 13.3699 16.2385 13.5533 16.0813C12.1647 15.9241 10.6975 15.3739 10.6975 12.9635C10.6975 12.2823 10.9333 11.7059 11.3525 11.2867C11.3001 11.1295 11.0643 10.5007 11.4049 9.60985C11.4049 9.60985 11.9289 9.45265 13.1341 10.2649C13.6319 10.1339 14.1821 10.0553 14.7061 10.0553C15.2302 10.0553 15.7804 10.1339 16.2782 10.2649C17.4834 9.45265 18.0074 9.60985 18.0074 9.60985C18.348 10.4745 18.1384 11.1033 18.0598 11.2867C18.4528 11.7321 18.7148 12.2823 18.7148 12.9635C18.7148 15.3739 17.2476 15.8979 15.8328 16.0551C16.0686 16.2385 16.252 16.6315 16.252 17.2079C16.252 18.0463 16.252 18.7275 16.252 18.9371C16.252 19.0943 16.3568 19.3039 16.6974 19.2515C19.1864 18.4393 20.9942 16.0813 20.9942 13.3041C20.9942 9.81945 18.1908 7.01602 14.7061 7.01602Z" fill="white"/>
</svg>
