<svg width="30" height="30" viewBox="0 0 30 30" fill="none" xmlns="http://www.w3.org/2000/svg">
<rect width="30" height="30" rx="15" fill="#AD343E"/>
<rect width="15.07" height="15.07" transform="translate(7.00012 7.00024)" fill="#AD343E"/>
<path d="M12.6514 15.7911L16.4189 12.0236M12.9654 12.3376H12.9716M16.1049 15.4772H16.1112M18.9305 20.1865V10.1399C18.9305 9.44629 18.3683 8.88403 17.6747 8.88403H11.3955C10.702 8.88403 10.1397 9.44629 10.1397 10.1399V20.1865L12.3374 18.9307L14.5351 20.1865L16.7328 18.9307L18.9305 20.1865ZM13.2793 12.3376C13.2793 12.511 13.1387 12.6515 12.9653 12.6515C12.7919 12.6515 12.6514 12.511 12.6514 12.3376C12.6514 12.1642 12.7919 12.0236 12.9653 12.0236C13.1387 12.0236 13.2793 12.1642 13.2793 12.3376ZM16.4189 15.4772C16.4189 15.6506 16.2783 15.7911 16.1049 15.7911C15.9315 15.7911 15.791 15.6506 15.791 15.4772C15.791 15.3038 15.9315 15.1632 16.1049 15.1632C16.2783 15.1632 16.4189 15.3038 16.4189 15.4772Z" stroke="white" stroke-width="1.5" stroke-linecap="round" stroke-linejoin="round"/>
</svg>
